<svg width="29" height="29" viewBox="0 0 29 29" fill="none" xmlns="http://www.w3.org/2000/svg">
<path d="M24.5385 0H4.46154C3.27866 0.00129165 2.1446 0.47176 1.30818 1.30818C0.47176 2.1446 0.00129165 3.27866 0 4.46154V24.5385C0.00129165 25.7213 0.47176 26.8554 1.30818 27.6918C2.1446 28.5282 3.27866 28.9987 4.46154 29H24.5385C25.7213 28.9987 26.8554 28.5282 27.6918 27.6918C28.5282 26.8554 28.9987 25.7213 29 24.5385V4.46154C28.9987 3.27866 28.5282 2.1446 27.6918 1.30818C26.8554 0.47176 25.7213 0.00129165 24.5385 0ZM22.0463 9.64041L12.677 20.7943C12.5743 20.9167 12.4464 21.0156 12.3021 21.0842C12.1577 21.1529 12.0003 21.1898 11.8405 21.1923H11.8217C11.6653 21.1923 11.5108 21.1593 11.368 21.0957C11.2252 21.032 11.0974 20.9391 10.9928 20.8228L6.97743 16.3613C6.87545 16.2531 6.79612 16.1257 6.74411 15.9864C6.69209 15.8472 6.66844 15.6989 6.67453 15.5504C6.68063 15.4019 6.71636 15.2561 6.77961 15.1215C6.84286 14.987 6.93237 14.8665 7.04287 14.767C7.15336 14.6676 7.28262 14.5913 7.42305 14.5425C7.56348 14.4937 7.71223 14.4735 7.86058 14.4831C8.00893 14.4926 8.15387 14.5317 8.28689 14.5981C8.41991 14.6644 8.53832 14.7567 8.63517 14.8695L11.7924 18.3774L20.3383 8.20575C20.53 7.98412 20.8012 7.84683 21.0933 7.82355C21.3855 7.80027 21.675 7.89288 21.8994 8.08136C22.1237 8.26983 22.2649 8.53903 22.2924 8.83076C22.3199 9.1225 22.2315 9.41334 22.0463 9.64041Z" fill="#C08CC4"/>
</svg>
